<?xml version="1.0" encoding="utf-8" standalone="no"?>
<!DOCTYPE svg PUBLIC "-//W3C//DTD SVG 1.1//EN"
  "http://www.w3.org/Graphics/SVG/1.1/DTD/svg11.dtd">
<svg xmlns:xlink="http://www.w3.org/1999/xlink" width="1152pt" height="432pt" viewBox="0 0 1152 432" xmlns="http://www.w3.org/2000/svg" version="1.1">
 <metadata>
  <rdf:RDF xmlns:dc="http://purl.org/dc/elements/1.1/" xmlns:cc="http://creativecommons.org/ns#" xmlns:rdf="http://www.w3.org/1999/02/22-rdf-syntax-ns#">
   <cc:Work>
    <dc:type rdf:resource="http://purl.org/dc/dcmitype/StillImage"/>
    <dc:date>2024-05-19T19:00:47.519201</dc:date>
    <dc:format>image/svg+xml</dc:format>
    <dc:creator>
     <cc:Agent>
      <dc:title>Matplotlib v3.8.4, https://matplotlib.org/</dc:title>
     </cc:Agent>
    </dc:creator>
   </cc:Work>
  </rdf:RDF>
 </metadata>
 <defs>
  <style type="text/css">*{stroke-linejoin: round; stroke-linecap: butt}</style>
 </defs>
 <g id="figure_1">
  <g id="patch_1">
   <path d="M 0 432 
L 1152 432 
L 1152 0 
L 0 0 
z
" style="fill: #ffffff"/>
  </g>
  <g id="axes_1">
   <g id="patch_2">
    <path d="M 144 384.48 
L 1036.8 384.48 
L 1036.8 51.84 
L 144 51.84 
z
" style="fill: #ffffff"/>
   </g>
   <g id="matplotlib.axis_1">
    <g id="xtick_1">
     <g id="line2d_1">
      <defs>
       <path id="m15bf1aac59" d="M 0 0 
L 0 3.5 
" style="stroke: #000000; stroke-width: 0.8"/>
      </defs>
      <g>
       <use xlink:href="#m15bf1aac59" x="184.581818" y="384.48" style="stroke: #000000; stroke-width: 0.8"/>
      </g>
     </g>
     <g id="text_1">
      <!-- 0 -->
      <g transform="translate(181.400568 399.078438) scale(0.1 -0.1)">
       <defs>
        <path id="DejaVuSans-30" d="M 2034 4250 
Q 1547 4250 1301 3770 
Q 1056 3291 1056 2328 
Q 1056 1369 1301 889 
Q 1547 409 2034 409 
Q 2525 409 2770 889 
Q 3016 1369 3016 2328 
Q 3016 3291 2770 3770 
Q 2525 4250 2034 4250 
z
M 2034 4750 
Q 2819 4750 3233 4129 
Q 3647 3509 3647 2328 
Q 3647 1150 3233 529 
Q 2819 -91 2034 -91 
Q 1250 -91 836 529 
Q 422 1150 422 2328 
Q 422 3509 836 4129 
Q 1250 4750 2034 4750 
z
" transform="scale(0.015625)"/>
       </defs>
       <use xlink:href="#DejaVuSans-30"/>
      </g>
     </g>
    </g>
    <g id="xtick_2">
     <g id="line2d_2">
      <g>
       <use xlink:href="#m15bf1aac59" x="292.92134" y="384.48" style="stroke: #000000; stroke-width: 0.8"/>
      </g>
     </g>
     <g id="text_2">
      <!-- 5000 -->
      <g transform="translate(280.19634 399.078438) scale(0.1 -0.1)">
       <defs>
        <path id="DejaVuSans-35" d="M 691 4666 
L 3169 4666 
L 3169 4134 
L 1269 4134 
L 1269 2991 
Q 1406 3038 1543 3061 
Q 1681 3084 1819 3084 
Q 2600 3084 3056 2656 
Q 3513 2228 3513 1497 
Q 3513 744 3044 326 
Q 2575 -91 1722 -91 
Q 1428 -91 1123 -41 
Q 819 9 494 109 
L 494 744 
Q 775 591 1075 516 
Q 1375 441 1709 441 
Q 2250 441 2565 725 
Q 2881 1009 2881 1497 
Q 2881 1984 2565 2268 
Q 2250 2553 1709 2553 
Q 1456 2553 1204 2497 
Q 953 2441 691 2322 
L 691 4666 
z
" transform="scale(0.015625)"/>
       </defs>
       <use xlink:href="#DejaVuSans-35"/>
       <use xlink:href="#DejaVuSans-30" x="63.623047"/>
       <use xlink:href="#DejaVuSans-30" x="127.246094"/>
       <use xlink:href="#DejaVuSans-30" x="190.869141"/>
      </g>
     </g>
    </g>
    <g id="xtick_3">
     <g id="line2d_3">
      <g>
       <use xlink:href="#m15bf1aac59" x="401.260862" y="384.48" style="stroke: #000000; stroke-width: 0.8"/>
      </g>
     </g>
     <g id="text_3">
      <!-- 10000 -->
      <g transform="translate(385.354612 399.078438) scale(0.1 -0.1)">
       <defs>
        <path id="DejaVuSans-31" d="M 794 531 
L 1825 531 
L 1825 4091 
L 703 3866 
L 703 4441 
L 1819 4666 
L 2450 4666 
L 2450 531 
L 3481 531 
L 3481 0 
L 794 0 
L 794 531 
z
" transform="scale(0.015625)"/>
       </defs>
       <use xlink:href="#DejaVuSans-31"/>
       <use xlink:href="#DejaVuSans-30" x="63.623047"/>
       <use xlink:href="#DejaVuSans-30" x="127.246094"/>
       <use xlink:href="#DejaVuSans-30" x="190.869141"/>
       <use xlink:href="#DejaVuSans-30" x="254.492188"/>
      </g>
     </g>
    </g>
    <g id="xtick_4">
     <g id="line2d_4">
      <g>
       <use xlink:href="#m15bf1aac59" x="509.600384" y="384.48" style="stroke: #000000; stroke-width: 0.8"/>
      </g>
     </g>
     <g id="text_4">
      <!-- 15000 -->
      <g transform="translate(493.694134 399.078438) scale(0.1 -0.1)">
       <use xlink:href="#DejaVuSans-31"/>
       <use xlink:href="#DejaVuSans-35" x="63.623047"/>
       <use xlink:href="#DejaVuSans-30" x="127.246094"/>
       <use xlink:href="#DejaVuSans-30" x="190.869141"/>
       <use xlink:href="#DejaVuSans-30" x="254.492188"/>
      </g>
     </g>
    </g>
    <g id="xtick_5">
     <g id="line2d_5">
      <g>
       <use xlink:href="#m15bf1aac59" x="617.939907" y="384.48" style="stroke: #000000; stroke-width: 0.8"/>
      </g>
     </g>
     <g id="text_5">
      <!-- 20000 -->
      <g transform="translate(602.033657 399.078438) scale(0.1 -0.1)">
       <defs>
        <path id="DejaVuSans-32" d="M 1228 531 
L 3431 531 
L 3431 0 
L 469 0 
L 469 531 
Q 828 903 1448 1529 
Q 2069 2156 2228 2338 
Q 2531 2678 2651 2914 
Q 2772 3150 2772 3378 
Q 2772 3750 2511 3984 
Q 2250 4219 1831 4219 
Q 1534 4219 1204 4116 
Q 875 4013 500 3803 
L 500 4441 
Q 881 4594 1212 4672 
Q 1544 4750 1819 4750 
Q 2544 4750 2975 4387 
Q 3406 4025 3406 3419 
Q 3406 3131 3298 2873 
Q 3191 2616 2906 2266 
Q 2828 2175 2409 1742 
Q 1991 1309 1228 531 
z
" transform="scale(0.015625)"/>
       </defs>
       <use xlink:href="#DejaVuSans-32"/>
       <use xlink:href="#DejaVuSans-30" x="63.623047"/>
       <use xlink:href="#DejaVuSans-30" x="127.246094"/>
       <use xlink:href="#DejaVuSans-30" x="190.869141"/>
       <use xlink:href="#DejaVuSans-30" x="254.492188"/>
      </g>
     </g>
    </g>
    <g id="xtick_6">
     <g id="line2d_6">
      <g>
       <use xlink:href="#m15bf1aac59" x="726.279429" y="384.48" style="stroke: #000000; stroke-width: 0.8"/>
      </g>
     </g>
     <g id="text_6">
      <!-- 25000 -->
      <g transform="translate(710.373179 399.078438) scale(0.1 -0.1)">
       <use xlink:href="#DejaVuSans-32"/>
       <use xlink:href="#DejaVuSans-35" x="63.623047"/>
       <use xlink:href="#DejaVuSans-30" x="127.246094"/>
       <use xlink:href="#DejaVuSans-30" x="190.869141"/>
       <use xlink:href="#DejaVuSans-30" x="254.492188"/>
      </g>
     </g>
    </g>
    <g id="xtick_7">
     <g id="line2d_7">
      <g>
       <use xlink:href="#m15bf1aac59" x="834.618951" y="384.48" style="stroke: #000000; stroke-width: 0.8"/>
      </g>
     </g>
     <g id="text_7">
      <!-- 30000 -->
      <g transform="translate(818.712701 399.078438) scale(0.1 -0.1)">
       <defs>
        <path id="DejaVuSans-33" d="M 2597 2516 
Q 3050 2419 3304 2112 
Q 3559 1806 3559 1356 
Q 3559 666 3084 287 
Q 2609 -91 1734 -91 
Q 1441 -91 1130 -33 
Q 819 25 488 141 
L 488 750 
Q 750 597 1062 519 
Q 1375 441 1716 441 
Q 2309 441 2620 675 
Q 2931 909 2931 1356 
Q 2931 1769 2642 2001 
Q 2353 2234 1838 2234 
L 1294 2234 
L 1294 2753 
L 1863 2753 
Q 2328 2753 2575 2939 
Q 2822 3125 2822 3475 
Q 2822 3834 2567 4026 
Q 2313 4219 1838 4219 
Q 1578 4219 1281 4162 
Q 984 4106 628 3988 
L 628 4550 
Q 988 4650 1302 4700 
Q 1616 4750 1894 4750 
Q 2613 4750 3031 4423 
Q 3450 4097 3450 3541 
Q 3450 3153 3228 2886 
Q 3006 2619 2597 2516 
z
" transform="scale(0.015625)"/>
       </defs>
       <use xlink:href="#DejaVuSans-33"/>
       <use xlink:href="#DejaVuSans-30" x="63.623047"/>
       <use xlink:href="#DejaVuSans-30" x="127.246094"/>
       <use xlink:href="#DejaVuSans-30" x="190.869141"/>
       <use xlink:href="#DejaVuSans-30" x="254.492188"/>
      </g>
     </g>
    </g>
    <g id="xtick_8">
     <g id="line2d_8">
      <g>
       <use xlink:href="#m15bf1aac59" x="942.958473" y="384.48" style="stroke: #000000; stroke-width: 0.8"/>
      </g>
     </g>
     <g id="text_8">
      <!-- 35000 -->
      <g transform="translate(927.052223 399.078438) scale(0.1 -0.1)">
       <use xlink:href="#DejaVuSans-33"/>
       <use xlink:href="#DejaVuSans-35" x="63.623047"/>
       <use xlink:href="#DejaVuSans-30" x="127.246094"/>
       <use xlink:href="#DejaVuSans-30" x="190.869141"/>
       <use xlink:href="#DejaVuSans-30" x="254.492188"/>
      </g>
     </g>
    </g>
    <g id="text_9">
     <!-- Position -->
     <g transform="translate(570.935938 412.756563) scale(0.1 -0.1)">
      <defs>
       <path id="DejaVuSans-50" d="M 1259 4147 
L 1259 2394 
L 2053 2394 
Q 2494 2394 2734 2622 
Q 2975 2850 2975 3272 
Q 2975 3691 2734 3919 
Q 2494 4147 2053 4147 
L 1259 4147 
z
M 628 4666 
L 2053 4666 
Q 2838 4666 3239 4311 
Q 3641 3956 3641 3272 
Q 3641 2581 3239 2228 
Q 2838 1875 2053 1875 
L 1259 1875 
L 1259 0 
L 628 0 
L 628 4666 
z
" transform="scale(0.015625)"/>
       <path id="DejaVuSans-6f" d="M 1959 3097 
Q 1497 3097 1228 2736 
Q 959 2375 959 1747 
Q 959 1119 1226 758 
Q 1494 397 1959 397 
Q 2419 397 2687 759 
Q 2956 1122 2956 1747 
Q 2956 2369 2687 2733 
Q 2419 3097 1959 3097 
z
M 1959 3584 
Q 2709 3584 3137 3096 
Q 3566 2609 3566 1747 
Q 3566 888 3137 398 
Q 2709 -91 1959 -91 
Q 1206 -91 779 398 
Q 353 888 353 1747 
Q 353 2609 779 3096 
Q 1206 3584 1959 3584 
z
" transform="scale(0.015625)"/>
       <path id="DejaVuSans-73" d="M 2834 3397 
L 2834 2853 
Q 2591 2978 2328 3040 
Q 2066 3103 1784 3103 
Q 1356 3103 1142 2972 
Q 928 2841 928 2578 
Q 928 2378 1081 2264 
Q 1234 2150 1697 2047 
L 1894 2003 
Q 2506 1872 2764 1633 
Q 3022 1394 3022 966 
Q 3022 478 2636 193 
Q 2250 -91 1575 -91 
Q 1294 -91 989 -36 
Q 684 19 347 128 
L 347 722 
Q 666 556 975 473 
Q 1284 391 1588 391 
Q 1994 391 2212 530 
Q 2431 669 2431 922 
Q 2431 1156 2273 1281 
Q 2116 1406 1581 1522 
L 1381 1569 
Q 847 1681 609 1914 
Q 372 2147 372 2553 
Q 372 3047 722 3315 
Q 1072 3584 1716 3584 
Q 2034 3584 2315 3537 
Q 2597 3491 2834 3397 
z
" transform="scale(0.015625)"/>
       <path id="DejaVuSans-69" d="M 603 3500 
L 1178 3500 
L 1178 0 
L 603 0 
L 603 3500 
z
M 603 4863 
L 1178 4863 
L 1178 4134 
L 603 4134 
L 603 4863 
z
" transform="scale(0.015625)"/>
       <path id="DejaVuSans-74" d="M 1172 4494 
L 1172 3500 
L 2356 3500 
L 2356 3053 
L 1172 3053 
L 1172 1153 
Q 1172 725 1289 603 
Q 1406 481 1766 481 
L 2356 481 
L 2356 0 
L 1766 0 
Q 1100 0 847 248 
Q 594 497 594 1153 
L 594 3053 
L 172 3053 
L 172 3500 
L 594 3500 
L 594 4494 
L 1172 4494 
z
" transform="scale(0.015625)"/>
       <path id="DejaVuSans-6e" d="M 3513 2113 
L 3513 0 
L 2938 0 
L 2938 2094 
Q 2938 2591 2744 2837 
Q 2550 3084 2163 3084 
Q 1697 3084 1428 2787 
Q 1159 2491 1159 1978 
L 1159 0 
L 581 0 
L 581 3500 
L 1159 3500 
L 1159 2956 
Q 1366 3272 1645 3428 
Q 1925 3584 2291 3584 
Q 2894 3584 3203 3211 
Q 3513 2838 3513 2113 
z
" transform="scale(0.015625)"/>
      </defs>
      <use xlink:href="#DejaVuSans-50"/>
      <use xlink:href="#DejaVuSans-6f" x="56.677734"/>
      <use xlink:href="#DejaVuSans-73" x="117.859375"/>
      <use xlink:href="#DejaVuSans-69" x="169.958984"/>
      <use xlink:href="#DejaVuSans-74" x="197.742188"/>
      <use xlink:href="#DejaVuSans-69" x="236.951172"/>
      <use xlink:href="#DejaVuSans-6f" x="264.734375"/>
      <use xlink:href="#DejaVuSans-6e" x="325.916016"/>
     </g>
    </g>
   </g>
   <g id="matplotlib.axis_2">
    <g id="ytick_1">
     <g id="line2d_9">
      <defs>
       <path id="m9d6da6354c" d="M 0 0 
L -3.5 0 
" style="stroke: #000000; stroke-width: 0.8"/>
      </defs>
      <g>
       <use xlink:href="#m9d6da6354c" x="144" y="369.36" style="stroke: #000000; stroke-width: 0.8"/>
      </g>
     </g>
     <g id="text_10">
      <!-- 0.00 -->
      <g transform="translate(114.734375 373.159219) scale(0.1 -0.1)">
       <defs>
        <path id="DejaVuSans-2e" d="M 684 794 
L 1344 794 
L 1344 0 
L 684 0 
L 684 794 
z
" transform="scale(0.015625)"/>
       </defs>
       <use xlink:href="#DejaVuSans-30"/>
       <use xlink:href="#DejaVuSans-2e" x="63.623047"/>
       <use xlink:href="#DejaVuSans-30" x="95.410156"/>
       <use xlink:href="#DejaVuSans-30" x="159.033203"/>
      </g>
     </g>
    </g>
    <g id="ytick_2">
     <g id="line2d_10">
      <g>
       <use xlink:href="#m9d6da6354c" x="144" y="331.56" style="stroke: #000000; stroke-width: 0.8"/>
      </g>
     </g>
     <g id="text_11">
      <!-- 0.25 -->
      <g transform="translate(114.734375 335.359219) scale(0.1 -0.1)">
       <use xlink:href="#DejaVuSans-30"/>
       <use xlink:href="#DejaVuSans-2e" x="63.623047"/>
       <use xlink:href="#DejaVuSans-32" x="95.410156"/>
       <use xlink:href="#DejaVuSans-35" x="159.033203"/>
      </g>
     </g>
    </g>
    <g id="ytick_3">
     <g id="line2d_11">
      <g>
       <use xlink:href="#m9d6da6354c" x="144" y="293.76" style="stroke: #000000; stroke-width: 0.8"/>
      </g>
     </g>
     <g id="text_12">
      <!-- 0.50 -->
      <g transform="translate(114.734375 297.559219) scale(0.1 -0.1)">
       <use xlink:href="#DejaVuSans-30"/>
       <use xlink:href="#DejaVuSans-2e" x="63.623047"/>
       <use xlink:href="#DejaVuSans-35" x="95.410156"/>
       <use xlink:href="#DejaVuSans-30" x="159.033203"/>
      </g>
     </g>
    </g>
    <g id="ytick_4">
     <g id="line2d_12">
      <g>
       <use xlink:href="#m9d6da6354c" x="144" y="255.96" style="stroke: #000000; stroke-width: 0.8"/>
      </g>
     </g>
     <g id="text_13">
      <!-- 0.75 -->
      <g transform="translate(114.734375 259.759219) scale(0.1 -0.1)">
       <defs>
        <path id="DejaVuSans-37" d="M 525 4666 
L 3525 4666 
L 3525 4397 
L 1831 0 
L 1172 0 
L 2766 4134 
L 525 4134 
L 525 4666 
z
" transform="scale(0.015625)"/>
       </defs>
       <use xlink:href="#DejaVuSans-30"/>
       <use xlink:href="#DejaVuSans-2e" x="63.623047"/>
       <use xlink:href="#DejaVuSans-37" x="95.410156"/>
       <use xlink:href="#DejaVuSans-35" x="159.033203"/>
      </g>
     </g>
    </g>
    <g id="ytick_5">
     <g id="line2d_13">
      <g>
       <use xlink:href="#m9d6da6354c" x="144" y="218.16" style="stroke: #000000; stroke-width: 0.8"/>
      </g>
     </g>
     <g id="text_14">
      <!-- 1.00 -->
      <g transform="translate(114.734375 221.959219) scale(0.1 -0.1)">
       <use xlink:href="#DejaVuSans-31"/>
       <use xlink:href="#DejaVuSans-2e" x="63.623047"/>
       <use xlink:href="#DejaVuSans-30" x="95.410156"/>
       <use xlink:href="#DejaVuSans-30" x="159.033203"/>
      </g>
     </g>
    </g>
    <g id="ytick_6">
     <g id="line2d_14">
      <g>
       <use xlink:href="#m9d6da6354c" x="144" y="180.36" style="stroke: #000000; stroke-width: 0.8"/>
      </g>
     </g>
     <g id="text_15">
      <!-- 1.25 -->
      <g transform="translate(114.734375 184.159219) scale(0.1 -0.1)">
       <use xlink:href="#DejaVuSans-31"/>
       <use xlink:href="#DejaVuSans-2e" x="63.623047"/>
       <use xlink:href="#DejaVuSans-32" x="95.410156"/>
       <use xlink:href="#DejaVuSans-35" x="159.033203"/>
      </g>
     </g>
    </g>
    <g id="ytick_7">
     <g id="line2d_15">
      <g>
       <use xlink:href="#m9d6da6354c" x="144" y="142.56" style="stroke: #000000; stroke-width: 0.8"/>
      </g>
     </g>
     <g id="text_16">
      <!-- 1.50 -->
      <g transform="translate(114.734375 146.359219) scale(0.1 -0.1)">
       <use xlink:href="#DejaVuSans-31"/>
       <use xlink:href="#DejaVuSans-2e" x="63.623047"/>
       <use xlink:href="#DejaVuSans-35" x="95.410156"/>
       <use xlink:href="#DejaVuSans-30" x="159.033203"/>
      </g>
     </g>
    </g>
    <g id="ytick_8">
     <g id="line2d_16">
      <g>
       <use xlink:href="#m9d6da6354c" x="144" y="104.76" style="stroke: #000000; stroke-width: 0.8"/>
      </g>
     </g>
     <g id="text_17">
      <!-- 1.75 -->
      <g transform="translate(114.734375 108.559219) scale(0.1 -0.1)">
       <use xlink:href="#DejaVuSans-31"/>
       <use xlink:href="#DejaVuSans-2e" x="63.623047"/>
       <use xlink:href="#DejaVuSans-37" x="95.410156"/>
       <use xlink:href="#DejaVuSans-35" x="159.033203"/>
      </g>
     </g>
    </g>
    <g id="ytick_9">
     <g id="line2d_17">
      <g>
       <use xlink:href="#m9d6da6354c" x="144" y="66.96" style="stroke: #000000; stroke-width: 0.8"/>
      </g>
     </g>
     <g id="text_18">
      <!-- 2.00 -->
      <g transform="translate(114.734375 70.759219) scale(0.1 -0.1)">
       <use xlink:href="#DejaVuSans-32"/>
       <use xlink:href="#DejaVuSans-2e" x="63.623047"/>
       <use xlink:href="#DejaVuSans-30" x="95.410156"/>
       <use xlink:href="#DejaVuSans-30" x="159.033203"/>
      </g>
     </g>
    </g>
    <g id="text_19">
     <!-- Depth of coverage -->
     <g transform="translate(108.654687 264.602187) rotate(-90) scale(0.1 -0.1)">
      <defs>
       <path id="DejaVuSans-44" d="M 1259 4147 
L 1259 519 
L 2022 519 
Q 2988 519 3436 956 
Q 3884 1394 3884 2338 
Q 3884 3275 3436 3711 
Q 2988 4147 2022 4147 
L 1259 4147 
z
M 628 4666 
L 1925 4666 
Q 3281 4666 3915 4102 
Q 4550 3538 4550 2338 
Q 4550 1131 3912 565 
Q 3275 0 1925 0 
L 628 0 
L 628 4666 
z
" transform="scale(0.015625)"/>
       <path id="DejaVuSans-65" d="M 3597 1894 
L 3597 1613 
L 953 1613 
Q 991 1019 1311 708 
Q 1631 397 2203 397 
Q 2534 397 2845 478 
Q 3156 559 3463 722 
L 3463 178 
Q 3153 47 2828 -22 
Q 2503 -91 2169 -91 
Q 1331 -91 842 396 
Q 353 884 353 1716 
Q 353 2575 817 3079 
Q 1281 3584 2069 3584 
Q 2775 3584 3186 3129 
Q 3597 2675 3597 1894 
z
M 3022 2063 
Q 3016 2534 2758 2815 
Q 2500 3097 2075 3097 
Q 1594 3097 1305 2825 
Q 1016 2553 972 2059 
L 3022 2063 
z
" transform="scale(0.015625)"/>
       <path id="DejaVuSans-70" d="M 1159 525 
L 1159 -1331 
L 581 -1331 
L 581 3500 
L 1159 3500 
L 1159 2969 
Q 1341 3281 1617 3432 
Q 1894 3584 2278 3584 
Q 2916 3584 3314 3078 
Q 3713 2572 3713 1747 
Q 3713 922 3314 415 
Q 2916 -91 2278 -91 
Q 1894 -91 1617 61 
Q 1341 213 1159 525 
z
M 3116 1747 
Q 3116 2381 2855 2742 
Q 2594 3103 2138 3103 
Q 1681 3103 1420 2742 
Q 1159 2381 1159 1747 
Q 1159 1113 1420 752 
Q 1681 391 2138 391 
Q 2594 391 2855 752 
Q 3116 1113 3116 1747 
z
" transform="scale(0.015625)"/>
       <path id="DejaVuSans-68" d="M 3513 2113 
L 3513 0 
L 2938 0 
L 2938 2094 
Q 2938 2591 2744 2837 
Q 2550 3084 2163 3084 
Q 1697 3084 1428 2787 
Q 1159 2491 1159 1978 
L 1159 0 
L 581 0 
L 581 4863 
L 1159 4863 
L 1159 2956 
Q 1366 3272 1645 3428 
Q 1925 3584 2291 3584 
Q 2894 3584 3203 3211 
Q 3513 2838 3513 2113 
z
" transform="scale(0.015625)"/>
       <path id="DejaVuSans-20" transform="scale(0.015625)"/>
       <path id="DejaVuSans-66" d="M 2375 4863 
L 2375 4384 
L 1825 4384 
Q 1516 4384 1395 4259 
Q 1275 4134 1275 3809 
L 1275 3500 
L 2222 3500 
L 2222 3053 
L 1275 3053 
L 1275 0 
L 697 0 
L 697 3053 
L 147 3053 
L 147 3500 
L 697 3500 
L 697 3744 
Q 697 4328 969 4595 
Q 1241 4863 1831 4863 
L 2375 4863 
z
" transform="scale(0.015625)"/>
       <path id="DejaVuSans-63" d="M 3122 3366 
L 3122 2828 
Q 2878 2963 2633 3030 
Q 2388 3097 2138 3097 
Q 1578 3097 1268 2742 
Q 959 2388 959 1747 
Q 959 1106 1268 751 
Q 1578 397 2138 397 
Q 2388 397 2633 464 
Q 2878 531 3122 666 
L 3122 134 
Q 2881 22 2623 -34 
Q 2366 -91 2075 -91 
Q 1284 -91 818 406 
Q 353 903 353 1747 
Q 353 2603 823 3093 
Q 1294 3584 2113 3584 
Q 2378 3584 2631 3529 
Q 2884 3475 3122 3366 
z
" transform="scale(0.015625)"/>
       <path id="DejaVuSans-76" d="M 191 3500 
L 800 3500 
L 1894 563 
L 2988 3500 
L 3597 3500 
L 2284 0 
L 1503 0 
L 191 3500 
z
" transform="scale(0.015625)"/>
       <path id="DejaVuSans-72" d="M 2631 2963 
Q 2534 3019 2420 3045 
Q 2306 3072 2169 3072 
Q 1681 3072 1420 2755 
Q 1159 2438 1159 1844 
L 1159 0 
L 581 0 
L 581 3500 
L 1159 3500 
L 1159 2956 
Q 1341 3275 1631 3429 
Q 1922 3584 2338 3584 
Q 2397 3584 2469 3576 
Q 2541 3569 2628 3553 
L 2631 2963 
z
" transform="scale(0.015625)"/>
       <path id="DejaVuSans-61" d="M 2194 1759 
Q 1497 1759 1228 1600 
Q 959 1441 959 1056 
Q 959 750 1161 570 
Q 1363 391 1709 391 
Q 2188 391 2477 730 
Q 2766 1069 2766 1631 
L 2766 1759 
L 2194 1759 
z
M 3341 1997 
L 3341 0 
L 2766 0 
L 2766 531 
Q 2569 213 2275 61 
Q 1981 -91 1556 -91 
Q 1019 -91 701 211 
Q 384 513 384 1019 
Q 384 1609 779 1909 
Q 1175 2209 1959 2209 
L 2766 2209 
L 2766 2266 
Q 2766 2663 2505 2880 
Q 2244 3097 1772 3097 
Q 1472 3097 1187 3025 
Q 903 2953 641 2809 
L 641 3341 
Q 956 3463 1253 3523 
Q 1550 3584 1831 3584 
Q 2591 3584 2966 3190 
Q 3341 2797 3341 1997 
z
" transform="scale(0.015625)"/>
       <path id="DejaVuSans-67" d="M 2906 1791 
Q 2906 2416 2648 2759 
Q 2391 3103 1925 3103 
Q 1463 3103 1205 2759 
Q 947 2416 947 1791 
Q 947 1169 1205 825 
Q 1463 481 1925 481 
Q 2391 481 2648 825 
Q 2906 1169 2906 1791 
z
M 3481 434 
Q 3481 -459 3084 -895 
Q 2688 -1331 1869 -1331 
Q 1566 -1331 1297 -1286 
Q 1028 -1241 775 -1147 
L 775 -588 
Q 1028 -725 1275 -790 
Q 1522 -856 1778 -856 
Q 2344 -856 2625 -561 
Q 2906 -266 2906 331 
L 2906 616 
Q 2728 306 2450 153 
Q 2172 0 1784 0 
Q 1141 0 747 490 
Q 353 981 353 1791 
Q 353 2603 747 3093 
Q 1141 3584 1784 3584 
Q 2172 3584 2450 3431 
Q 2728 3278 2906 2969 
L 2906 3500 
L 3481 3500 
L 3481 434 
z
" transform="scale(0.015625)"/>
      </defs>
      <use xlink:href="#DejaVuSans-44"/>
      <use xlink:href="#DejaVuSans-65" x="77.001953"/>
      <use xlink:href="#DejaVuSans-70" x="138.525391"/>
      <use xlink:href="#DejaVuSans-74" x="202.001953"/>
      <use xlink:href="#DejaVuSans-68" x="241.210938"/>
      <use xlink:href="#DejaVuSans-20" x="304.589844"/>
      <use xlink:href="#DejaVuSans-6f" x="336.376953"/>
      <use xlink:href="#DejaVuSans-66" x="397.558594"/>
      <use xlink:href="#DejaVuSans-20" x="432.763672"/>
      <use xlink:href="#DejaVuSans-63" x="464.550781"/>
      <use xlink:href="#DejaVuSans-6f" x="519.53125"/>
      <use xlink:href="#DejaVuSans-76" x="580.712891"/>
      <use xlink:href="#DejaVuSans-65" x="639.892578"/>
      <use xlink:href="#DejaVuSans-72" x="701.416016"/>
      <use xlink:href="#DejaVuSans-61" x="742.529297"/>
      <use xlink:href="#DejaVuSans-67" x="803.808594"/>
      <use xlink:href="#DejaVuSans-65" x="867.285156"/>
     </g>
    </g>
   </g>
   <g id="line2d_18">
    <path d="M 184.581818 218.16 
L 186.553597 218.16 
L 186.661937 369.36 
L 186.791944 218.16 
L 188.677052 218.16 
L 188.763724 369.36 
L 188.785392 218.16 
L 199.120982 218.16 
L 199.185986 369.36 
L 199.229322 218.16 
L 203.237884 218.16 
L 203.28122 369.36 
L 203.346223 218.16 
L 203.58457 218.16 
L 203.714578 369.36 
L 203.736246 369.36 
L 203.866253 218.16 
L 204.039596 218.16 
L 204.147936 369.36 
L 204.277943 218.16 
L 209.803259 218.16 
L 209.824927 369.36 
L 209.911598 218.16 
L 213.768485 218.16 
L 213.790153 369.36 
L 213.876825 218.16 
L 215.740265 218.16 
L 215.761933 369.36 
L 215.848604 218.16 
L 216.801992 218.16 
L 216.82366 369.36 
L 216.910332 218.16 
L 219.92217 218.16 
L 219.943838 369.36 
L 220.03051 218.16 
L 223.519042 218.16 
L 223.605714 369.36 
L 223.627382 218.16 
L 230.691119 218.16 
L 230.712787 369.36 
L 230.799458 218.16 
L 230.972802 218.16 
L 230.994469 369.36 
L 231.081141 218.16 
L 237.733188 218.16 
L 237.754856 369.36 
L 237.841527 218.16 
L 239.618295 218.16 
L 239.661631 369.36 
L 239.726635 218.16 
L 246.833708 218.16 
L 246.855375 369.36 
L 246.942047 218.16 
L 247.527081 218.16 
L 247.548748 369.36 
L 247.63542 218.16 
L 248.545472 218.16 
L 248.675479 369.36 
L 248.805487 218.16 
L 250.32224 218.16 
L 250.408912 369.36 
L 250.43058 218.16 
L 250.603923 218.16 
L 250.712262 369.36 
L 250.84227 218.16 
L 257.645992 218.16 
L 257.66766 369.36 
L 257.754331 218.16 
L 258.924398 218.16 
L 259.01107 369.36 
L 259.032738 218.16 
L 260.397816 218.16 
L 260.419484 369.36 
L 260.506155 218.16 
L 264.7964 218.16 
L 264.839736 369.36 
L 264.90474 218.16 
L 267.743235 218.16 
L 267.786571 369.36 
L 267.851575 218.16 
L 269.411664 218.16 
L 269.520003 369.36 
L 269.650011 218.16 
L 271.253436 218.16 
L 271.275104 369.36 
L 271.361775 218.16 
L 277.10377 218.16 
L 277.125438 369.36 
L 277.21211 218.16 
L 277.775475 218.16 
L 277.818811 369.36 
L 277.883815 218.16 
L 279.032214 218.16 
L 279.075549 369.36 
L 279.140553 218.16 
L 281.827373 218.16 
L 281.849041 369.36 
L 281.935713 218.16 
L 282.867433 218.16 
L 282.932436 369.36 
L 282.975772 218.16 
L 290.64621 218.16 
L 290.667878 369.36 
L 290.75455 218.16 
L 290.819554 218.16 
L 290.927893 369.36 
L 291.0579 218.16 
L 295.348146 218.16 
L 295.369813 369.36 
L 295.456485 218.16 
L 299.660059 218.16 
L 299.681726 369.36 
L 299.768398 218.16 
L 300.136752 218.16 
L 300.180088 369.36 
L 300.245092 218.16 
L 306.615456 218.16 
L 306.637124 369.36 
L 306.723795 218.16 
L 315.000935 218.16 
L 315.130942 369.36 
L 315.217614 369.36 
L 315.347621 218.16 
L 319.29118 218.16 
L 319.334516 369.36 
L 319.399519 218.16 
L 326.159906 218.16 
L 326.181574 369.36 
L 326.268245 218.16 
L 327.936674 218.16 
L 327.958342 369.36 
L 328.045013 218.16 
L 332.746949 218.16 
L 332.768616 369.36 
L 332.855288 218.16 
L 333.440322 218.16 
L 333.461989 369.36 
L 333.548661 218.16 
L 343.190879 218.16 
L 343.212546 369.36 
L 343.299218 218.16 
L 357.968389 218.16 
L 358.055061 369.36 
L 358.076729 218.16 
L 358.185068 218.16 
L 358.27174 369.36 
L 358.293408 218.16 
L 358.661762 218.16 
L 358.726766 369.36 
L 358.770102 218.16 
L 359.680154 218.16 
L 359.72349 369.36 
L 359.788493 218.16 
L 359.831829 218.16 
L 359.853497 369.36 
L 359.940169 218.16 
L 373.114255 218.16 
L 373.135922 369.36 
L 373.222594 218.16 
L 380.763025 218.16 
L 380.784693 369.36 
L 380.871364 218.16 
L 385.269949 218.16 
L 385.313285 369.36 
L 385.378288 218.16 
L 385.703307 218.16 
L 385.724975 369.36 
L 385.811646 218.16 
L 391.575309 218.16 
L 391.596977 369.36 
L 391.683649 218.16 
L 391.835324 218.16 
L 391.900328 369.36 
L 391.943663 218.16 
L 403.55766 218.16 
L 403.579328 369.36 
L 403.666 218.16 
L 406.35282 218.16 
L 406.396156 369.36 
L 406.461159 218.16 
L 410.166371 218.16 
L 410.188039 369.36 
L 410.274711 218.16 
L 415.04165 218.16 
L 415.063317 369.36 
L 415.149989 218.16 
L 415.75669 218.16 
L 415.821694 369.36 
L 415.86503 218.16 
L 416.731746 218.16 
L 416.753414 369.36 
L 416.840086 218.16 
L 417.988485 218.16 
L 418.096824 369.36 
L 418.226832 218.16 
L 421.997047 218.16 
L 422.018715 369.36 
L 422.105386 218.16 
L 423.297121 218.16 
L 423.383793 369.36 
L 423.405461 218.16 
L 441.693172 218.16 
L 441.736508 369.36 
L 441.801512 218.16 
L 454.173885 218.16 
L 454.260557 369.36 
L 454.282224 218.16 
L 454.368896 218.16 
L 454.390564 369.36 
L 454.477236 218.16 
L 457.64075 218.16 
L 457.684085 369.36 
L 457.749089 218.16 
L 466.372915 218.16 
L 466.459587 369.36 
L 466.481255 218.16 
L 470.706496 218.16 
L 470.728164 369.36 
L 470.814836 218.16 
L 474.606719 218.16 
L 474.650055 369.36 
L 474.715058 218.16 
L 476.123472 218.16 
L 476.231812 369.36 
L 476.361819 218.16 
L 490.055935 218.16 
L 490.09927 369.36 
L 490.164274 218.16 
L 492.872762 218.16 
L 492.89443 369.36 
L 492.981102 218.16 
L 501.301577 218.16 
L 501.323245 369.36 
L 501.409917 218.16 
L 502.774995 218.16 
L 502.905002 369.36 
L 503.035009 218.16 
L 519.069259 218.16 
L 519.112594 369.36 
L 519.177598 218.16 
L 521.214381 218.16 
L 521.257717 369.36 
L 521.322721 218.16 
L 530.293233 218.16 
L 530.358237 369.36 
L 530.401573 218.16 
L 532.39502 218.16 
L 532.416688 369.36 
L 532.503359 218.16 
L 532.698371 218.16 
L 532.720038 369.36 
L 532.80671 218.16 
L 534.25846 218.16 
L 534.280128 369.36 
L 534.366799 218.16 
L 540.368809 218.16 
L 540.390477 369.36 
L 540.477148 218.16 
L 540.520484 218.16 
L 540.542152 369.36 
L 540.628824 218.16 
L 546.479158 218.16 
L 546.500826 369.36 
L 546.587497 218.16 
L 549.425993 218.16 
L 549.534332 369.36 
L 549.66434 218.16 
L 550.097698 218.16 
L 550.162701 369.36 
L 550.206037 218.16 
L 560.541628 218.16 
L 560.563296 369.36 
L 560.649967 218.16 
L 565.568582 218.16 
L 565.590249 369.36 
L 565.676921 218.16 
L 565.785261 218.16 
L 565.915268 369.36 
L 565.936936 369.36 
L 566.066943 218.16 
L 580.107745 218.16 
L 580.129413 369.36 
L 580.216085 218.16 
L 582.989577 218.16 
L 583.097916 369.36 
L 583.227924 218.16 
L 586.759792 218.16 
L 586.803128 369.36 
L 586.868132 218.16 
L 591.440059 218.16 
L 591.461727 369.36 
L 591.548399 218.16 
L 598.937154 218.16 
L 599.002158 369.36 
L 599.045494 218.16 
L 599.478852 218.16 
L 599.50052 369.36 
L 599.587191 218.16 
L 602.144004 218.16 
L 602.165672 369.36 
L 602.252344 218.16 
L 608.644376 218.16 
L 608.731047 369.36 
L 608.752715 218.16 
L 617.203198 218.16 
L 617.224866 369.36 
L 617.311537 218.16 
L 617.333205 218.16 
L 617.354873 369.36 
L 617.441545 218.16 
L 634.494185 218.16 
L 634.580857 369.36 
L 634.602525 218.16 
L 637.072666 218.16 
L 637.181006 369.36 
L 637.311013 218.16 
L 643.204683 218.16 
L 643.248019 369.36 
L 643.313023 218.16 
L 646.043179 218.16 
L 646.12985 369.36 
L 646.151518 218.16 
L 657.592172 218.16 
L 657.61384 369.36 
L 657.700511 218.16 
L 659.78063 218.16 
L 659.802298 369.36 
L 659.888969 218.16 
L 661.687406 218.16 
L 661.709073 369.36 
L 661.795745 218.16 
L 662.337443 218.16 
L 662.445782 369.36 
L 662.57579 218.16 
L 663.767524 218.16 
L 663.789192 369.36 
L 663.875864 218.16 
L 666.60602 218.16 
L 666.649356 369.36 
L 666.714359 218.16 
L 666.844367 218.16 
L 666.866035 369.36 
L 666.952706 218.16 
L 669.011157 218.16 
L 669.032825 369.36 
L 669.119497 218.16 
L 675.099838 218.16 
L 675.121506 369.36 
L 675.208178 218.16 
L 675.381521 218.16 
L 675.403189 369.36 
L 675.489861 218.16 
L 676.659927 218.16 
L 676.789935 369.36 
L 676.833271 369.36 
L 676.963278 218.16 
L 677.071618 218.16 
L 677.158289 369.36 
L 677.179957 218.16 
L 677.569979 218.16 
L 677.656651 369.36 
L 677.678319 218.16 
L 678.220017 218.16 
L 678.28502 369.36 
L 678.328356 218.16 
L 678.371692 218.16 
L 678.39336 369.36 
L 678.480031 218.16 
L 678.675043 218.16 
L 678.69671 369.36 
L 678.783382 218.16 
L 679.173404 218.16 
L 679.195072 369.36 
L 679.281744 218.16 
L 682.055236 218.16 
L 682.076904 369.36 
L 682.163575 218.16 
L 682.488594 218.16 
L 682.510262 369.36 
L 682.596933 218.16 
L 682.921952 218.16 
L 682.94362 369.36 
L 683.030291 218.16 
L 684.677052 218.16 
L 684.69872 369.36 
L 684.785392 218.16 
L 685.63044 218.16 
L 685.652108 369.36 
L 685.738779 218.16 
L 685.782115 218.16 
L 685.803783 369.36 
L 685.890455 218.16 
L 687.840566 218.16 
L 687.90557 369.36 
L 687.948906 218.16 
L 687.992241 218.16 
L 688.013909 369.36 
L 688.100581 218.16 
L 688.815622 218.16 
L 688.83729 369.36 
L 688.923961 218.16 
L 689.270648 218.16 
L 689.292316 369.36 
L 689.378987 218.16 
L 695.66268 218.16 
L 695.684348 369.36 
L 695.771019 218.16 
L 698.934533 218.16 
L 698.977869 369.36 
L 699.042873 218.16 
L 702.704749 218.16 
L 702.726416 369.36 
L 702.813088 218.16 
L 704.871539 218.16 
L 704.893207 369.36 
L 704.979879 218.16 
L 705.716587 218.16 
L 705.738255 369.36 
L 705.824927 218.16 
L 708.425075 218.16 
L 708.446743 369.36 
L 708.533415 218.16 
L 710.0285 218.16 
L 710.050168 369.36 
L 710.13684 218.16 
L 711.003556 218.16 
L 711.025224 369.36 
L 711.111896 218.16 
L 711.393578 218.16 
L 711.415246 369.36 
L 711.501918 218.16 
L 711.805268 218.16 
L 711.870272 369.36 
L 711.913608 218.16 
L 712.71532 218.16 
L 712.736988 369.36 
L 712.82366 218.16 
L 712.845328 218.16 
L 712.931999 369.36 
L 712.953667 218.16 
L 718.630658 218.16 
L 718.652326 369.36 
L 718.738998 218.16 
L 722.33587 218.16 
L 722.357538 369.36 
L 722.44421 218.16 
L 724.09097 218.16 
L 724.112638 369.36 
L 724.19931 218.16 
L 726.149421 218.16 
L 726.214425 369.36 
L 726.257761 218.16 
L 727.427828 218.16 
L 727.449495 369.36 
L 727.536167 218.16 
L 727.926189 218.16 
L 727.969525 369.36 
L 728.034529 218.16 
L 728.186204 218.16 
L 728.207872 369.36 
L 728.294544 218.16 
L 729.57295 218.16 
L 729.637954 369.36 
L 729.68129 218.16 
L 732.281438 218.16 
L 732.324774 369.36 
L 732.389778 218.16 
L 739.1935 218.16 
L 739.215168 369.36 
L 739.301839 218.16 
L 740.341899 218.16 
L 740.385234 369.36 
L 740.450238 218.16 
L 745.282181 218.16 
L 745.347184 369.36 
L 745.39052 218.16 
L 746.040557 218.16 
L 746.062225 369.36 
L 746.148897 218.16 
L 747.318964 218.16 
L 747.3623 369.36 
L 747.427303 218.16 
L 755.401092 218.16 
L 755.444428 369.36 
L 755.509432 218.16 
L 757.546215 218.16 
L 757.611218 369.36 
L 757.654554 218.16 
L 757.936237 218.16 
L 757.957905 369.36 
L 758.044576 218.16 
L 759.691337 218.16 
L 759.713005 369.36 
L 759.799677 218.16 
L 765.476668 218.16 
L 765.541671 369.36 
L 765.585007 218.16 
L 765.888358 218.16 
L 765.931694 369.36 
L 765.996697 218.16 
L 771.803696 218.16 
L 771.825364 369.36 
L 771.912035 218.16 
L 773.840479 218.16 
L 773.862147 369.36 
L 773.948818 218.16 
L 774.403844 218.16 
L 774.425512 369.36 
L 774.512184 218.16 
L 783.222681 218.16 
L 783.309353 369.36 
L 783.331021 218.16 
L 790.091407 218.16 
L 790.221415 369.36 
L 790.243082 369.36 
L 790.37309 218.16 
L 791.694832 218.16 
L 791.738168 369.36 
L 791.803172 218.16 
L 794.576663 218.16 
L 794.598331 369.36 
L 794.685003 218.16 
L 797.870185 218.16 
L 797.891853 369.36 
L 797.978524 218.16 
L 802.377109 218.16 
L 802.398777 369.36 
L 802.485448 218.16 
L 806.125656 218.16 
L 806.147324 369.36 
L 806.233996 218.16 
L 811.26095 218.16 
L 811.390957 369.36 
L 811.520965 218.16 
L 811.585968 369.36 
L 811.629304 218.16 
L 812.712699 218.16 
L 812.734367 369.36 
L 812.821039 218.16 
L 817.392967 218.16 
L 817.414635 369.36 
L 817.501306 218.16 
L 822.311581 218.16 
L 822.333249 369.36 
L 822.41992 218.16 
L 822.744939 218.16 
L 822.831611 369.36 
L 822.853279 218.16 
L 823.329972 218.16 
L 823.394976 369.36 
L 823.438312 218.16 
L 827.07852 218.16 
L 827.121856 369.36 
L 827.186859 218.16 
L 829.526993 218.16 
L 829.548661 369.36 
L 829.635333 218.16 
L 831.672116 218.16 
L 831.715451 369.36 
L 831.780455 218.16 
L 836.309047 218.16 
L 836.374051 369.36 
L 836.417387 218.16 
L 842.051042 218.16 
L 842.07271 369.36 
L 842.159381 218.16 
L 846.384623 218.16 
L 846.406291 369.36 
L 846.492962 218.16 
L 853.925054 218.16 
L 853.946721 369.36 
L 854.033393 218.16 
L 854.423415 218.16 
L 854.445083 369.36 
L 854.531755 218.16 
L 855.138456 218.16 
L 855.20346 369.36 
L 855.246796 218.16 
L 856.286855 218.16 
L 856.308523 369.36 
L 856.395195 218.16 
L 857.088568 218.16 
L 857.110235 369.36 
L 857.196907 218.16 
L 865.53905 218.16 
L 865.604054 369.36 
L 865.64739 218.16 
L 867.640837 218.16 
L 867.727509 369.36 
L 867.749177 218.16 
L 875.397947 218.16 
L 875.419615 369.36 
L 875.506286 218.16 
L 885.018496 218.16 
L 885.040164 369.36 
L 885.126836 218.16 
L 887.250291 218.16 
L 887.271958 369.36 
L 887.35863 218.16 
L 889.265406 218.16 
L 889.395413 369.36 
L 889.417081 369.36 
L 889.547088 218.16 
L 899.232642 218.16 
L 899.25431 369.36 
L 899.340981 218.16 
L 899.449321 218.16 
L 899.470989 369.36 
L 899.55766 218.16 
L 909.979922 218.16 
L 910.00159 369.36 
L 910.088262 218.16 
L 912.255052 218.16 
L 912.27672 369.36 
L 912.363392 218.16 
L 915.440234 218.16 
L 915.461902 369.36 
L 915.548574 218.16 
L 917.477017 218.16 
L 917.607025 369.36 
L 918.495409 369.36 
L 918.625416 218.16 
L 919.470464 218.16 
L 919.535468 369.36 
L 919.578804 218.16 
L 919.730479 218.16 
L 919.752147 369.36 
L 919.838819 218.16 
L 920.44552 218.16 
L 920.488856 369.36 
L 920.55386 218.16 
L 921.117225 218.16 
L 921.182229 369.36 
L 921.225565 218.16 
L 926.924223 218.16 
L 927.054231 66.96 
L 927.920947 66.96 
L 927.964283 218.16 
L 928.029287 66.96 
L 929.242689 66.96 
L 929.372697 218.16 
L 934.681333 218.16 
L 934.724669 369.36 
L 934.789673 218.16 
L 935.786396 218.16 
L 935.808064 369.36 
L 935.894736 218.16 
L 937.216478 218.16 
L 937.238146 369.36 
L 937.324818 218.16 
L 939.274929 218.16 
L 939.296597 369.36 
L 939.383269 218.16 
L 941.571727 218.16 
L 941.593395 369.36 
L 941.680066 218.16 
L 942.048421 218.16 
L 942.070089 369.36 
L 942.15676 218.16 
L 948.028762 218.16 
L 948.05043 369.36 
L 948.137102 218.16 
L 949.263833 218.16 
L 949.39384 369.36 
L 949.437176 369.36 
L 949.567184 218.16 
L 950.477236 218.16 
L 950.520571 369.36 
L 950.585575 218.16 
L 955.179171 218.16 
L 955.222507 369.36 
L 955.28751 218.16 
L 955.460854 218.16 
L 955.482522 369.36 
L 955.569193 218.16 
L 957.345961 218.16 
L 957.367629 369.36 
L 957.454301 218.16 
L 965.341418 218.16 
L 965.406422 369.36 
L 965.449758 218.16 
L 966.576489 218.16 
L 966.598156 369.36 
L 966.684828 218.16 
L 967.659884 218.16 
L 967.681552 369.36 
L 967.768223 218.16 
L 967.876563 218.16 
L 967.941567 369.36 
L 967.984902 218.16 
L 968.201581 218.16 
L 968.331589 369.36 
L 968.353257 369.36 
L 968.483264 218.16 
L 970.715058 218.16 
L 970.736726 369.36 
L 970.823398 218.16 
L 973.921908 218.16 
L 974.051916 369.36 
L 974.116919 369.36 
L 974.246927 218.16 
L 989.761146 218.16 
L 989.782814 369.36 
L 989.869486 218.16 
L 991.407907 218.16 
L 991.429575 369.36 
L 991.516247 218.16 
L 991.99294 218.16 
L 992.014608 369.36 
L 992.10128 218.16 
L 992.122948 218.16 
L 992.166284 369.36 
L 992.231287 218.16 
L 994.7881 218.16 
L 994.809768 369.36 
L 994.89644 218.16 
L 996.218182 218.16 
L 996.218182 218.16 
" clip-path="url(#p7dd6023ffc)" style="fill: none; stroke: #1f77b4; stroke-width: 1.5; stroke-linecap: square"/>
   </g>
   <g id="line2d_19">
    <path d="M 184.581818 369.36 
L 996.218182 369.36 
L 996.218182 369.36 
" clip-path="url(#p7dd6023ffc)" style="fill: none; stroke-dasharray: 5.55,2.4; stroke-dashoffset: 0; stroke: #ff7f0e; stroke-width: 1.5"/>
   </g>
   <g id="line2d_20">
    <path d="M 184.581818 369.36 
L 996.218182 369.36 
L 996.218182 369.36 
" clip-path="url(#p7dd6023ffc)" style="fill: none; stroke-dasharray: 5.55,2.4; stroke-dashoffset: 0; stroke: #2ca02c; stroke-width: 1.5"/>
   </g>
   <g id="line2d_21">
    <path d="M 184.581818 218.16 
L 996.218182 218.16 
L 996.218182 218.16 
" clip-path="url(#p7dd6023ffc)" style="fill: none; stroke-dasharray: 5.55,2.4; stroke-dashoffset: 0; stroke: #d62728; stroke-width: 1.5"/>
   </g>
   <g id="patch_3">
    <path d="M 144 384.48 
L 144 51.84 
" style="fill: none; stroke: #000000; stroke-width: 0.8; stroke-linejoin: miter; stroke-linecap: square"/>
   </g>
   <g id="patch_4">
    <path d="M 1036.8 384.48 
L 1036.8 51.84 
" style="fill: none; stroke: #000000; stroke-width: 0.8; stroke-linejoin: miter; stroke-linecap: square"/>
   </g>
   <g id="patch_5">
    <path d="M 144 384.48 
L 1036.8 384.48 
" style="fill: none; stroke: #000000; stroke-width: 0.8; stroke-linejoin: miter; stroke-linecap: square"/>
   </g>
   <g id="patch_6">
    <path d="M 144 51.84 
L 1036.8 51.84 
" style="fill: none; stroke: #000000; stroke-width: 0.8; stroke-linejoin: miter; stroke-linecap: square"/>
   </g>
   <g id="text_20">
    <!-- pEB2-YAC_pCCRI-BAC_Wu1_strategy_A -->
    <g transform="translate(475.179375 45.84) scale(0.12 -0.12)">
     <defs>
      <path id="DejaVuSans-45" d="M 628 4666 
L 3578 4666 
L 3578 4134 
L 1259 4134 
L 1259 2753 
L 3481 2753 
L 3481 2222 
L 1259 2222 
L 1259 531 
L 3634 531 
L 3634 0 
L 628 0 
L 628 4666 
z
" transform="scale(0.015625)"/>
      <path id="DejaVuSans-42" d="M 1259 2228 
L 1259 519 
L 2272 519 
Q 2781 519 3026 730 
Q 3272 941 3272 1375 
Q 3272 1813 3026 2020 
Q 2781 2228 2272 2228 
L 1259 2228 
z
M 1259 4147 
L 1259 2741 
L 2194 2741 
Q 2656 2741 2882 2914 
Q 3109 3088 3109 3444 
Q 3109 3797 2882 3972 
Q 2656 4147 2194 4147 
L 1259 4147 
z
M 628 4666 
L 2241 4666 
Q 2963 4666 3353 4366 
Q 3744 4066 3744 3513 
Q 3744 3084 3544 2831 
Q 3344 2578 2956 2516 
Q 3422 2416 3680 2098 
Q 3938 1781 3938 1306 
Q 3938 681 3513 340 
Q 3088 0 2303 0 
L 628 0 
L 628 4666 
z
" transform="scale(0.015625)"/>
      <path id="DejaVuSans-2d" d="M 313 2009 
L 1997 2009 
L 1997 1497 
L 313 1497 
L 313 2009 
z
" transform="scale(0.015625)"/>
      <path id="DejaVuSans-59" d="M -13 4666 
L 666 4666 
L 1959 2747 
L 3244 4666 
L 3922 4666 
L 2272 2222 
L 2272 0 
L 1638 0 
L 1638 2222 
L -13 4666 
z
" transform="scale(0.015625)"/>
      <path id="DejaVuSans-41" d="M 2188 4044 
L 1331 1722 
L 3047 1722 
L 2188 4044 
z
M 1831 4666 
L 2547 4666 
L 4325 0 
L 3669 0 
L 3244 1197 
L 1141 1197 
L 716 0 
L 50 0 
L 1831 4666 
z
" transform="scale(0.015625)"/>
      <path id="DejaVuSans-43" d="M 4122 4306 
L 4122 3641 
Q 3803 3938 3442 4084 
Q 3081 4231 2675 4231 
Q 1875 4231 1450 3742 
Q 1025 3253 1025 2328 
Q 1025 1406 1450 917 
Q 1875 428 2675 428 
Q 3081 428 3442 575 
Q 3803 722 4122 1019 
L 4122 359 
Q 3791 134 3420 21 
Q 3050 -91 2638 -91 
Q 1578 -91 968 557 
Q 359 1206 359 2328 
Q 359 3453 968 4101 
Q 1578 4750 2638 4750 
Q 3056 4750 3426 4639 
Q 3797 4528 4122 4306 
z
" transform="scale(0.015625)"/>
      <path id="DejaVuSans-5f" d="M 3263 -1063 
L 3263 -1509 
L -63 -1509 
L -63 -1063 
L 3263 -1063 
z
" transform="scale(0.015625)"/>
      <path id="DejaVuSans-52" d="M 2841 2188 
Q 3044 2119 3236 1894 
Q 3428 1669 3622 1275 
L 4263 0 
L 3584 0 
L 2988 1197 
Q 2756 1666 2539 1819 
Q 2322 1972 1947 1972 
L 1259 1972 
L 1259 0 
L 628 0 
L 628 4666 
L 2053 4666 
Q 2853 4666 3247 4331 
Q 3641 3997 3641 3322 
Q 3641 2881 3436 2590 
Q 3231 2300 2841 2188 
z
M 1259 4147 
L 1259 2491 
L 2053 2491 
Q 2509 2491 2742 2702 
Q 2975 2913 2975 3322 
Q 2975 3731 2742 3939 
Q 2509 4147 2053 4147 
L 1259 4147 
z
" transform="scale(0.015625)"/>
      <path id="DejaVuSans-49" d="M 628 4666 
L 1259 4666 
L 1259 0 
L 628 0 
L 628 4666 
z
" transform="scale(0.015625)"/>
      <path id="DejaVuSans-57" d="M 213 4666 
L 850 4666 
L 1831 722 
L 2809 4666 
L 3519 4666 
L 4500 722 
L 5478 4666 
L 6119 4666 
L 4947 0 
L 4153 0 
L 3169 4050 
L 2175 0 
L 1381 0 
L 213 4666 
z
" transform="scale(0.015625)"/>
      <path id="DejaVuSans-75" d="M 544 1381 
L 544 3500 
L 1119 3500 
L 1119 1403 
Q 1119 906 1312 657 
Q 1506 409 1894 409 
Q 2359 409 2629 706 
Q 2900 1003 2900 1516 
L 2900 3500 
L 3475 3500 
L 3475 0 
L 2900 0 
L 2900 538 
Q 2691 219 2414 64 
Q 2138 -91 1772 -91 
Q 1169 -91 856 284 
Q 544 659 544 1381 
z
M 1991 3584 
L 1991 3584 
z
" transform="scale(0.015625)"/>
      <path id="DejaVuSans-79" d="M 2059 -325 
Q 1816 -950 1584 -1140 
Q 1353 -1331 966 -1331 
L 506 -1331 
L 506 -850 
L 844 -850 
Q 1081 -850 1212 -737 
Q 1344 -625 1503 -206 
L 1606 56 
L 191 3500 
L 800 3500 
L 1894 763 
L 2988 3500 
L 3597 3500 
L 2059 -325 
z
" transform="scale(0.015625)"/>
     </defs>
     <use xlink:href="#DejaVuSans-70"/>
     <use xlink:href="#DejaVuSans-45" x="63.476562"/>
     <use xlink:href="#DejaVuSans-42" x="126.660156"/>
     <use xlink:href="#DejaVuSans-32" x="195.263672"/>
     <use xlink:href="#DejaVuSans-2d" x="258.886719"/>
     <use xlink:href="#DejaVuSans-59" x="283.095703"/>
     <use xlink:href="#DejaVuSans-41" x="336.429688"/>
     <use xlink:href="#DejaVuSans-43" x="403.087891"/>
     <use xlink:href="#DejaVuSans-5f" x="472.912109"/>
     <use xlink:href="#DejaVuSans-70" x="522.912109"/>
     <use xlink:href="#DejaVuSans-43" x="586.388672"/>
     <use xlink:href="#DejaVuSans-43" x="656.212891"/>
     <use xlink:href="#DejaVuSans-52" x="726.037109"/>
     <use xlink:href="#DejaVuSans-49" x="795.519531"/>
     <use xlink:href="#DejaVuSans-2d" x="825.011719"/>
     <use xlink:href="#DejaVuSans-42" x="857.470703"/>
     <use xlink:href="#DejaVuSans-41" x="926.074219"/>
     <use xlink:href="#DejaVuSans-43" x="992.732422"/>
     <use xlink:href="#DejaVuSans-5f" x="1062.556641"/>
     <use xlink:href="#DejaVuSans-57" x="1112.556641"/>
     <use xlink:href="#DejaVuSans-75" x="1207.808594"/>
     <use xlink:href="#DejaVuSans-31" x="1271.1875"/>
     <use xlink:href="#DejaVuSans-5f" x="1334.810547"/>
     <use xlink:href="#DejaVuSans-73" x="1384.810547"/>
     <use xlink:href="#DejaVuSans-74" x="1436.910156"/>
     <use xlink:href="#DejaVuSans-72" x="1476.119141"/>
     <use xlink:href="#DejaVuSans-61" x="1517.232422"/>
     <use xlink:href="#DejaVuSans-74" x="1578.511719"/>
     <use xlink:href="#DejaVuSans-65" x="1617.720703"/>
     <use xlink:href="#DejaVuSans-67" x="1679.244141"/>
     <use xlink:href="#DejaVuSans-79" x="1742.720703"/>
     <use xlink:href="#DejaVuSans-5f" x="1801.900391"/>
     <use xlink:href="#DejaVuSans-41" x="1851.900391"/>
    </g>
   </g>
   <g id="legend_1">
    <g id="patch_7">
     <path d="M 146 28.936045 
L 1034.8 28.936045 
Q 1036.8 28.936045 1036.8 26.936045 
L 1036.8 13.25792 
Q 1036.8 11.25792 1034.8 11.25792 
L 146 11.25792 
Q 144 11.25792 144 13.25792 
L 144 26.936045 
Q 144 28.936045 146 28.936045 
z
" style="fill: #ffffff; opacity: 0.8; stroke: #cccccc; stroke-linejoin: miter"/>
    </g>
    <g id="line2d_22">
     <path d="M 148 19.356358 
L 158 19.356358 
L 168 19.356358 
" style="fill: none; stroke-dasharray: 5.55,2.4; stroke-dashoffset: 0; stroke: #ff7f0e; stroke-width: 1.5"/>
    </g>
    <g id="text_21">
     <!-- Average depth * 0.2 -->
     <g transform="translate(176 22.856358) scale(0.1 -0.1)">
      <defs>
       <path id="DejaVuSans-64" d="M 2906 2969 
L 2906 4863 
L 3481 4863 
L 3481 0 
L 2906 0 
L 2906 525 
Q 2725 213 2448 61 
Q 2172 -91 1784 -91 
Q 1150 -91 751 415 
Q 353 922 353 1747 
Q 353 2572 751 3078 
Q 1150 3584 1784 3584 
Q 2172 3584 2448 3432 
Q 2725 3281 2906 2969 
z
M 947 1747 
Q 947 1113 1208 752 
Q 1469 391 1925 391 
Q 2381 391 2643 752 
Q 2906 1113 2906 1747 
Q 2906 2381 2643 2742 
Q 2381 3103 1925 3103 
Q 1469 3103 1208 2742 
Q 947 2381 947 1747 
z
" transform="scale(0.015625)"/>
       <path id="DejaVuSans-2a" d="M 3009 3897 
L 1888 3291 
L 3009 2681 
L 2828 2375 
L 1778 3009 
L 1778 1831 
L 1422 1831 
L 1422 3009 
L 372 2375 
L 191 2681 
L 1313 3291 
L 191 3897 
L 372 4206 
L 1422 3572 
L 1422 4750 
L 1778 4750 
L 1778 3572 
L 2828 4206 
L 3009 3897 
z
" transform="scale(0.015625)"/>
      </defs>
      <use xlink:href="#DejaVuSans-41"/>
      <use xlink:href="#DejaVuSans-76" x="62.533203"/>
      <use xlink:href="#DejaVuSans-65" x="121.712891"/>
      <use xlink:href="#DejaVuSans-72" x="183.236328"/>
      <use xlink:href="#DejaVuSans-61" x="224.349609"/>
      <use xlink:href="#DejaVuSans-67" x="285.628906"/>
      <use xlink:href="#DejaVuSans-65" x="349.105469"/>
      <use xlink:href="#DejaVuSans-20" x="410.628906"/>
      <use xlink:href="#DejaVuSans-64" x="442.416016"/>
      <use xlink:href="#DejaVuSans-65" x="505.892578"/>
      <use xlink:href="#DejaVuSans-70" x="567.416016"/>
      <use xlink:href="#DejaVuSans-74" x="630.892578"/>
      <use xlink:href="#DejaVuSans-68" x="670.101562"/>
      <use xlink:href="#DejaVuSans-20" x="733.480469"/>
      <use xlink:href="#DejaVuSans-2a" x="765.267578"/>
      <use xlink:href="#DejaVuSans-20" x="815.267578"/>
      <use xlink:href="#DejaVuSans-30" x="847.054688"/>
      <use xlink:href="#DejaVuSans-2e" x="910.677734"/>
      <use xlink:href="#DejaVuSans-32" x="942.464844"/>
     </g>
    </g>
    <g id="line2d_23">
     <path d="M 539.724219 19.356358 
L 549.724219 19.356358 
L 559.724219 19.356358 
" style="fill: none; stroke-dasharray: 5.55,2.4; stroke-dashoffset: 0; stroke: #2ca02c; stroke-width: 1.5"/>
    </g>
    <g id="text_22">
     <!-- Average depth -->
     <g transform="translate(567.724219 22.856358) scale(0.1 -0.1)">
      <use xlink:href="#DejaVuSans-41"/>
      <use xlink:href="#DejaVuSans-76" x="62.533203"/>
      <use xlink:href="#DejaVuSans-65" x="121.712891"/>
      <use xlink:href="#DejaVuSans-72" x="183.236328"/>
      <use xlink:href="#DejaVuSans-61" x="224.349609"/>
      <use xlink:href="#DejaVuSans-67" x="285.628906"/>
      <use xlink:href="#DejaVuSans-65" x="349.105469"/>
      <use xlink:href="#DejaVuSans-20" x="410.628906"/>
      <use xlink:href="#DejaVuSans-64" x="442.416016"/>
      <use xlink:href="#DejaVuSans-65" x="505.892578"/>
      <use xlink:href="#DejaVuSans-70" x="567.416016"/>
      <use xlink:href="#DejaVuSans-74" x="630.892578"/>
      <use xlink:href="#DejaVuSans-68" x="670.101562"/>
     </g>
    </g>
    <g id="line2d_24">
     <path d="M 904.189062 19.356358 
L 914.189062 19.356358 
L 924.189062 19.356358 
" style="fill: none; stroke-dasharray: 5.55,2.4; stroke-dashoffset: 0; stroke: #d62728; stroke-width: 1.5"/>
    </g>
    <g id="text_23">
     <!-- Average depth * 1.8 -->
     <g transform="translate(932.189062 22.856358) scale(0.1 -0.1)">
      <defs>
       <path id="DejaVuSans-38" d="M 2034 2216 
Q 1584 2216 1326 1975 
Q 1069 1734 1069 1313 
Q 1069 891 1326 650 
Q 1584 409 2034 409 
Q 2484 409 2743 651 
Q 3003 894 3003 1313 
Q 3003 1734 2745 1975 
Q 2488 2216 2034 2216 
z
M 1403 2484 
Q 997 2584 770 2862 
Q 544 3141 544 3541 
Q 544 4100 942 4425 
Q 1341 4750 2034 4750 
Q 2731 4750 3128 4425 
Q 3525 4100 3525 3541 
Q 3525 3141 3298 2862 
Q 3072 2584 2669 2484 
Q 3125 2378 3379 2068 
Q 3634 1759 3634 1313 
Q 3634 634 3220 271 
Q 2806 -91 2034 -91 
Q 1263 -91 848 271 
Q 434 634 434 1313 
Q 434 1759 690 2068 
Q 947 2378 1403 2484 
z
M 1172 3481 
Q 1172 3119 1398 2916 
Q 1625 2713 2034 2713 
Q 2441 2713 2670 2916 
Q 2900 3119 2900 3481 
Q 2900 3844 2670 4047 
Q 2441 4250 2034 4250 
Q 1625 4250 1398 4047 
Q 1172 3844 1172 3481 
z
" transform="scale(0.015625)"/>
      </defs>
      <use xlink:href="#DejaVuSans-41"/>
      <use xlink:href="#DejaVuSans-76" x="62.533203"/>
      <use xlink:href="#DejaVuSans-65" x="121.712891"/>
      <use xlink:href="#DejaVuSans-72" x="183.236328"/>
      <use xlink:href="#DejaVuSans-61" x="224.349609"/>
      <use xlink:href="#DejaVuSans-67" x="285.628906"/>
      <use xlink:href="#DejaVuSans-65" x="349.105469"/>
      <use xlink:href="#DejaVuSans-20" x="410.628906"/>
      <use xlink:href="#DejaVuSans-64" x="442.416016"/>
      <use xlink:href="#DejaVuSans-65" x="505.892578"/>
      <use xlink:href="#DejaVuSans-70" x="567.416016"/>
      <use xlink:href="#DejaVuSans-74" x="630.892578"/>
      <use xlink:href="#DejaVuSans-68" x="670.101562"/>
      <use xlink:href="#DejaVuSans-20" x="733.480469"/>
      <use xlink:href="#DejaVuSans-2a" x="765.267578"/>
      <use xlink:href="#DejaVuSans-20" x="815.267578"/>
      <use xlink:href="#DejaVuSans-31" x="847.054688"/>
      <use xlink:href="#DejaVuSans-2e" x="910.677734"/>
      <use xlink:href="#DejaVuSans-38" x="942.464844"/>
     </g>
    </g>
   </g>
  </g>
 </g>
 <defs>
  <clipPath id="p7dd6023ffc">
   <rect x="144" y="51.84" width="892.8" height="332.64"/>
  </clipPath>
 </defs>
</svg>
